# xmcd
#
# Track frame offsets:
#	150
#	19438
#	36784
#	50514
#	62177
#	79288
#	93884
#	104217
#	119112
#	134033
#	145464
#	159330
#	172686
#	188273
#	204826
#
# Disc length: 2934 seconds
#
# Revision: 1
# Processed by: cddbd v1.5.2PL0 Copyright (c) Steve Scherf et al.
# Submitted via: audiograbber 1.83.01
#
DISCID=d50b740f
DTITLE=Various Artist - Classic Country - 1984-1986 [Disc 1]
DYEAR=2002
DGENRE=Country
TTITLE0=Ronnie Milsap - Lost In The Fifties Tonight (In The Still Of The Night)
TTITLE1=Ray Charles and Willie Nelson - Seven Spanish Angels
TTITLE2=Willie Nelson, Waylon Jennings, Kris Kristofferson and Johnny Cash - High
TTITLE2=wayman
TTITLE3=Steve Earle - Guitar Town
TTITLE4=Dolly Parton and The Jordanaires - Save The Last Dance For Me
TTITLE5=John Williamson - Mallee Boy
TTITLE6=The Statler Brothers - Hello Mary Lou
TTITLE7=Vince Gill - Oh Carolina
TTITLE8=Rosanne Cash - I Don't Know Why You Don't Want Me
TTITLE9=Sweethearts Of The Rodeo - Hey Doll Baby
TTITLE10=Merle Haggard - That's The Way Love Goes
TTITLE11=George Jones and Lacy J. Dalton - Size Seven Round (Made Of Gold)
TTITLE12=Charlie Daniels Band - Boogie Woogie Fiddle Country Blues
TTITLE13=Alabama - Mountain Music
TTITLE14=Reba McEntire - Whoever's In New England
EXTD=
EXTT0=
EXTT1=
EXTT2=
EXTT3=
EXTT4=
EXTT5=
EXTT6=
EXTT7=
EXTT8=
EXTT9=
EXTT10=
EXTT11=
EXTT12=
EXTT13=
EXTT14=
PLAYORDER=
